#FILENAME=ba111d0d
# xmcd CD database file
# Copyright (C) 1995-1998 Ti Kan
#
# Track frame offsets:
#	150
#	25398
#	46958
#	67230
#	84795
#	114023
#	137625
#	164943
#	194373
#	220000
#	244110
#	275920
#	301165
#
# Disc length: 4383 seconds
#
# Revision: 34560332
# Submitted via:  CDmax 1.7.3
#
DISCID=ba111d0d
DTITLE=Don Henley / Actual Miles Henley's Greatest Hits
TTITLE0=Dirty Laundry
TTITLE1=The Boys Of Summer
TTITLE2=All She Wants To Do Is Dance
TTITLE3=Not Enough Love In The World
TTITLE4=Sunset Grill
TTITLE5=The End Of The Innocence
TTITLE6=The Last Worthless Evening
TTITLE7=New York Minute
TTITLE8=I Will Not Go Quietly
TTITLE9=The Heart Of The Matter
TTITLE10=The Garden Of Allah
TTITLE11=You Don't Know Me At All
TTITLE12=Everybody Knows
EXTD=Compliation from three previous albums: I Can't Stand Still; Building T
EXTD=he Perfect Beast; and  The End of The Innocence. Contains three "new" e
EXTD=xtra tracks.\nYEAR: 1999  ID3G:  17
EXTT0=
EXTT1=
EXTT2=
EXTT3=
EXTT4=
EXTT5=
EXTT6=
EXTT7=
EXTT8=
EXTT9=
EXTT10=
EXTT11=
EXTT12=
PLAYORDER=
